<?xml version="1.0" encoding="UTF-8" standalone="no"?>
<!DOCTYPE svg PUBLIC "-//W3C//DTD SVG 1.1//EN"
 "http://www.w3.org/Graphics/SVG/1.1/DTD/svg11.dtd">
<!-- Generated by graphviz version 2.40.1 (20161225.0304)
 -->
<!-- Title: %3 Pages: 1 -->
<svg width="1970pt" height="211pt"
 viewBox="0.00 0.00 1969.67 211.22" xmlns="http://www.w3.org/2000/svg" xmlns:xlink="http://www.w3.org/1999/xlink">
<g id="graph0" class="graph" transform="scale(1 1) rotate(0) translate(4 207.2233)">
<title>%3</title>
<!-- 1052962314915113697 -->
<g id="node1" class="node">
<title>1052962314915113697</title>
<polygon fill="none" stroke="#ffffff" points="179.4993,-203.2233 .1667,-203.2233 .1667,-167.2233 179.4993,-167.2233 179.4993,-203.2233"/>
<text text-anchor="middle" x="89.833" y="-181.0233" font-family="Times,serif" font-size="14.00" fill="#000000">(&#39;da.random.normal&#45;#0&#39;, 3, 0)</text>
</g>
<!-- &#45;3053643848712218482 -->
<g id="node2" class="node">
<title>&#45;3053643848712218482</title>
<ellipse fill="none" stroke="#ffffff" cx="89.833" cy="-65.6117" rx="65.7235" ry="65.7235"/>
<text text-anchor="middle" x="89.833" y="-61.4117" font-family="Times,serif" font-size="14.00" fill="#000000">_apply_random</text>
</g>
<!-- &#45;3053643848712218482&#45;&gt;1052962314915113697 -->
<g id="edge1" class="edge">
<title>&#45;3053643848712218482&#45;&gt;1052962314915113697</title>
<path fill="none" stroke="#ffffff" d="M89.833,-131.366C89.833,-140.2212 89.833,-148.9008 89.833,-156.6178"/>
<polygon fill="#ffffff" stroke="#ffffff" points="86.3331,-156.8043 89.833,-166.8043 93.3331,-156.8043 86.3331,-156.8043"/>
</g>
<!-- 1052950964142124290 -->
<g id="node3" class="node">
<title>1052950964142124290</title>
<polygon fill="none" stroke="#ffffff" points="377.4993,-203.2233 198.1667,-203.2233 198.1667,-167.2233 377.4993,-167.2233 377.4993,-203.2233"/>
<text text-anchor="middle" x="287.833" y="-181.0233" font-family="Times,serif" font-size="14.00" fill="#000000">(&#39;da.random.normal&#45;#0&#39;, 8, 0)</text>
</g>
<!-- 3304700831992715805 -->
<g id="node4" class="node">
<title>3304700831992715805</title>
<ellipse fill="none" stroke="#ffffff" cx="287.833" cy="-65.6117" rx="65.7235" ry="65.7235"/>
<text text-anchor="middle" x="287.833" y="-61.4117" font-family="Times,serif" font-size="14.00" fill="#000000">_apply_random</text>
</g>
<!-- 3304700831992715805&#45;&gt;1052950964142124290 -->
<g id="edge2" class="edge">
<title>3304700831992715805&#45;&gt;1052950964142124290</title>
<path fill="none" stroke="#ffffff" d="M287.833,-131.366C287.833,-140.2212 287.833,-148.9008 287.833,-156.6178"/>
<polygon fill="#ffffff" stroke="#ffffff" points="284.3331,-156.8043 287.833,-166.8043 291.3331,-156.8043 284.3331,-156.8043"/>
</g>
<!-- 1052968620900107812 -->
<g id="node5" class="node">
<title>1052968620900107812</title>
<polygon fill="none" stroke="#ffffff" points="575.4993,-203.2233 396.1667,-203.2233 396.1667,-167.2233 575.4993,-167.2233 575.4993,-203.2233"/>
<text text-anchor="middle" x="485.833" y="-181.0233" font-family="Times,serif" font-size="14.00" fill="#000000">(&#39;da.random.normal&#45;#0&#39;, 6, 0)</text>
</g>
<!-- &#45;8298400226706164949 -->
<g id="node6" class="node">
<title>&#45;8298400226706164949</title>
<ellipse fill="none" stroke="#ffffff" cx="485.833" cy="-65.6117" rx="65.7235" ry="65.7235"/>
<text text-anchor="middle" x="485.833" y="-61.4117" font-family="Times,serif" font-size="14.00" fill="#000000">_apply_random</text>
</g>
<!-- &#45;8298400226706164949&#45;&gt;1052968620900107812 -->
<g id="edge3" class="edge">
<title>&#45;8298400226706164949&#45;&gt;1052968620900107812</title>
<path fill="none" stroke="#ffffff" d="M485.833,-131.366C485.833,-140.2212 485.833,-148.9008 485.833,-156.6178"/>
<polygon fill="#ffffff" stroke="#ffffff" points="482.3331,-156.8043 485.833,-166.8043 489.3331,-156.8043 482.3331,-156.8043"/>
</g>
<!-- 1052963576112112520 -->
<g id="node7" class="node">
<title>1052963576112112520</title>
<polygon fill="none" stroke="#ffffff" points="773.4993,-203.2233 594.1667,-203.2233 594.1667,-167.2233 773.4993,-167.2233 773.4993,-203.2233"/>
<text text-anchor="middle" x="683.833" y="-181.0233" font-family="Times,serif" font-size="14.00" fill="#000000">(&#39;da.random.normal&#45;#0&#39;, 2, 0)</text>
</g>
<!-- 7352286092186904287 -->
<g id="node8" class="node">
<title>7352286092186904287</title>
<ellipse fill="none" stroke="#ffffff" cx="683.833" cy="-65.6117" rx="65.7235" ry="65.7235"/>
<text text-anchor="middle" x="683.833" y="-61.4117" font-family="Times,serif" font-size="14.00" fill="#000000">_apply_random</text>
</g>
<!-- 7352286092186904287&#45;&gt;1052963576112112520 -->
<g id="edge4" class="edge">
<title>7352286092186904287&#45;&gt;1052963576112112520</title>
<path fill="none" stroke="#ffffff" d="M683.833,-131.366C683.833,-140.2212 683.833,-148.9008 683.833,-156.6178"/>
<polygon fill="#ffffff" stroke="#ffffff" points="680.3331,-156.8043 683.833,-166.8043 687.3331,-156.8043 680.3331,-156.8043"/>
</g>
<!-- 1052964837309111343 -->
<g id="node9" class="node">
<title>1052964837309111343</title>
<polygon fill="none" stroke="#ffffff" points="971.4993,-203.2233 792.1667,-203.2233 792.1667,-167.2233 971.4993,-167.2233 971.4993,-203.2233"/>
<text text-anchor="middle" x="881.833" y="-181.0233" font-family="Times,serif" font-size="14.00" fill="#000000">(&#39;da.random.normal&#45;#0&#39;, 5, 0)</text>
</g>
<!-- &#45;3231903550919188936 -->
<g id="node10" class="node">
<title>&#45;3231903550919188936</title>
<ellipse fill="none" stroke="#ffffff" cx="881.833" cy="-65.6117" rx="65.7235" ry="65.7235"/>
<text text-anchor="middle" x="881.833" y="-61.4117" font-family="Times,serif" font-size="14.00" fill="#000000">_apply_random</text>
</g>
<!-- &#45;3231903550919188936&#45;&gt;1052964837309111343 -->
<g id="edge5" class="edge">
<title>&#45;3231903550919188936&#45;&gt;1052964837309111343</title>
<path fill="none" stroke="#ffffff" d="M881.833,-131.366C881.833,-140.2212 881.833,-148.9008 881.833,-156.6178"/>
<polygon fill="#ffffff" stroke="#ffffff" points="878.3331,-156.8043 881.833,-166.8043 885.3331,-156.8043 878.3331,-156.8043"/>
</g>
<!-- 1052959792521116051 -->
<g id="node11" class="node">
<title>1052959792521116051</title>
<polygon fill="none" stroke="#ffffff" points="1169.4993,-203.2233 990.1667,-203.2233 990.1667,-167.2233 1169.4993,-167.2233 1169.4993,-203.2233"/>
<text text-anchor="middle" x="1079.833" y="-181.0233" font-family="Times,serif" font-size="14.00" fill="#000000">(&#39;da.random.normal&#45;#0&#39;, 1, 0)</text>
</g>
<!-- 2709865355702817260 -->
<g id="node12" class="node">
<title>2709865355702817260</title>
<ellipse fill="none" stroke="#ffffff" cx="1079.833" cy="-65.6117" rx="65.7235" ry="65.7235"/>
<text text-anchor="middle" x="1079.833" y="-61.4117" font-family="Times,serif" font-size="14.00" fill="#000000">_apply_random</text>
</g>
<!-- 2709865355702817260&#45;&gt;1052959792521116051 -->
<g id="edge6" class="edge">
<title>2709865355702817260&#45;&gt;1052959792521116051</title>
<path fill="none" stroke="#ffffff" d="M1079.833,-131.366C1079.833,-140.2212 1079.833,-148.9008 1079.833,-156.6178"/>
<polygon fill="#ffffff" stroke="#ffffff" points="1076.3331,-156.8043 1079.833,-166.8043 1083.3331,-156.8043 1076.3331,-156.8043"/>
</g>
<!-- 1052966098506110166 -->
<g id="node13" class="node">
<title>1052966098506110166</title>
<polygon fill="none" stroke="#ffffff" points="1367.4993,-203.2233 1188.1667,-203.2233 1188.1667,-167.2233 1367.4993,-167.2233 1367.4993,-203.2233"/>
<text text-anchor="middle" x="1277.833" y="-181.0233" font-family="Times,serif" font-size="14.00" fill="#000000">(&#39;da.random.normal&#45;#0&#39;, 4, 0)</text>
</g>
<!-- 6090982656518088817 -->
<g id="node14" class="node">
<title>6090982656518088817</title>
<ellipse fill="none" stroke="#ffffff" cx="1277.833" cy="-65.6117" rx="65.7235" ry="65.7235"/>
<text text-anchor="middle" x="1277.833" y="-61.4117" font-family="Times,serif" font-size="14.00" fill="#000000">_apply_random</text>
</g>
<!-- 6090982656518088817&#45;&gt;1052966098506110166 -->
<g id="edge7" class="edge">
<title>6090982656518088817&#45;&gt;1052966098506110166</title>
<path fill="none" stroke="#ffffff" d="M1277.833,-131.366C1277.833,-140.2212 1277.833,-148.9008 1277.833,-156.6178"/>
<polygon fill="#ffffff" stroke="#ffffff" points="1274.3331,-156.8043 1277.833,-166.8043 1281.3331,-156.8043 1274.3331,-156.8043"/>
</g>
<!-- 1052961053718114874 -->
<g id="node15" class="node">
<title>1052961053718114874</title>
<polygon fill="none" stroke="#ffffff" points="1565.4993,-203.2233 1386.1667,-203.2233 1386.1667,-167.2233 1565.4993,-167.2233 1565.4993,-203.2233"/>
<text text-anchor="middle" x="1475.833" y="-181.0233" font-family="Times,serif" font-size="14.00" fill="#000000">(&#39;da.random.normal&#45;#0&#39;, 0, 0)</text>
</g>
<!-- &#45;660977990509793707 -->
<g id="node16" class="node">
<title>&#45;660977990509793707</title>
<ellipse fill="none" stroke="#ffffff" cx="1475.833" cy="-65.6117" rx="65.7235" ry="65.7235"/>
<text text-anchor="middle" x="1475.833" y="-61.4117" font-family="Times,serif" font-size="14.00" fill="#000000">_apply_random</text>
</g>
<!-- &#45;660977990509793707&#45;&gt;1052961053718114874 -->
<g id="edge8" class="edge">
<title>&#45;660977990509793707&#45;&gt;1052961053718114874</title>
<path fill="none" stroke="#ffffff" d="M1475.833,-131.366C1475.833,-140.2212 1475.833,-148.9008 1475.833,-156.6178"/>
<polygon fill="#ffffff" stroke="#ffffff" points="1472.3331,-156.8043 1475.833,-166.8043 1479.3331,-156.8043 1472.3331,-156.8043"/>
</g>
<!-- 1052949702945125467 -->
<g id="node17" class="node">
<title>1052949702945125467</title>
<polygon fill="none" stroke="#ffffff" points="1763.4993,-203.2233 1584.1667,-203.2233 1584.1667,-167.2233 1763.4993,-167.2233 1763.4993,-203.2233"/>
<text text-anchor="middle" x="1673.833" y="-181.0233" font-family="Times,serif" font-size="14.00" fill="#000000">(&#39;da.random.normal&#45;#0&#39;, 9, 0)</text>
</g>
<!-- 4418309242682069172 -->
<g id="node18" class="node">
<title>4418309242682069172</title>
<ellipse fill="none" stroke="#ffffff" cx="1673.833" cy="-65.6117" rx="65.7235" ry="65.7235"/>
<text text-anchor="middle" x="1673.833" y="-61.4117" font-family="Times,serif" font-size="14.00" fill="#000000">_apply_random</text>
</g>
<!-- 4418309242682069172&#45;&gt;1052949702945125467 -->
<g id="edge9" class="edge">
<title>4418309242682069172&#45;&gt;1052949702945125467</title>
<path fill="none" stroke="#ffffff" d="M1673.833,-131.366C1673.833,-140.2212 1673.833,-148.9008 1673.833,-156.6178"/>
<polygon fill="#ffffff" stroke="#ffffff" points="1670.3331,-156.8043 1673.833,-166.8043 1677.3331,-156.8043 1670.3331,-156.8043"/>
</g>
<!-- 1052967359703108989 -->
<g id="node19" class="node">
<title>1052967359703108989</title>
<polygon fill="none" stroke="#ffffff" points="1961.4993,-203.2233 1782.1667,-203.2233 1782.1667,-167.2233 1961.4993,-167.2233 1961.4993,-203.2233"/>
<text text-anchor="middle" x="1871.833" y="-181.0233" font-family="Times,serif" font-size="14.00" fill="#000000">(&#39;da.random.normal&#45;#0&#39;, 7, 0)</text>
</g>
<!-- 8907240224525043930 -->
<g id="node20" class="node">
<title>8907240224525043930</title>
<ellipse fill="none" stroke="#ffffff" cx="1871.833" cy="-65.6117" rx="65.7235" ry="65.7235"/>
<text text-anchor="middle" x="1871.833" y="-61.4117" font-family="Times,serif" font-size="14.00" fill="#000000">_apply_random</text>
</g>
<!-- 8907240224525043930&#45;&gt;1052967359703108989 -->
<g id="edge10" class="edge">
<title>8907240224525043930&#45;&gt;1052967359703108989</title>
<path fill="none" stroke="#ffffff" d="M1871.833,-131.366C1871.833,-140.2212 1871.833,-148.9008 1871.833,-156.6178"/>
<polygon fill="#ffffff" stroke="#ffffff" points="1868.3331,-156.8043 1871.833,-166.8043 1875.3331,-156.8043 1868.3331,-156.8043"/>
</g>
</g>
</svg>
